<?xml version="1.0" standalone="no"?>
<!DOCTYPE svg PUBLIC "-//W3C//DTD SVG 20010904//EN"
 "http://www.w3.org/TR/2001/REC-SVG-20010904/DTD/svg10.dtd">
<svg version="1.0" xmlns="http://www.w3.org/2000/svg"
 width="274.000000pt" height="259.000000pt" viewBox="0 0 274.000000 259.000000"
 preserveAspectRatio="xMidYMid meet">
<metadata>
Created by potrace 1.10, written by Peter Selinger 2001-2011
</metadata>
<g transform="translate(0.000000,259.000000) scale(0.100000,-0.100000)"
fill="#000000" stroke="none">
<path d="M1485 2299 c-446 -78 -796 -294 -1010 -624 -64 -98 -101 -170 -131
-255 l-24 -65 0 248 c0 213 -2 247 -15 247 -13 0 -15 -42 -15 -320 l0 -320
220 0 220 0 -9 -23 c-35 -91 -39 -518 -7 -657 50 -214 130 -330 254 -366 154
-45 278 44 347 249 72 215 78 568 14 743 -32 86 -21 83 -308 86 l-252 3 53 88
c166 279 412 447 681 464 l87 6 0 -297 0 -296 123 0 c67 0 140 5 161 11 57 16
138 102 166 176 61 160 0 298 -164 374 -57 26 -188 59 -236 59 -20 0 -20 5
-20 245 0 190 -3 245 -12 244 -7 0 -62 -9 -123 -20z m105 -239 l0 -230 -55 0
c-127 0 -297 -55 -420 -135 -127 -83 -306 -291 -358 -417 l-16 -38 -210 0
c-147 0 -211 3 -211 11 0 26 63 195 101 271 84 168 217 331 365 449 180 143
425 247 704 299 52 10 96 19 98 19 1 1 2 -102 2 -229z m136 -275 c86 -16 182
-58 231 -99 104 -88 98 -270 -12 -380 -56 -56 -88 -66 -215 -66 l-110 0 0 280
c0 234 2 280 14 280 8 0 49 -7 92 -15z m-438 -612 c62 -123 73 -455 22 -668
-66 -279 -229 -395 -397 -282 -82 55 -134 152 -170 319 -32 147 -22 600 14
661 2 4 119 7 258 7 l255 0 18 -37z"/>
<path d="M1582 1013 c2 -14 13 -17 54 -14 55 3 84 -14 84 -48 0 -30 -22 -41
-83 -41 -50 0 -58 -2 -55 -17 3 -14 13 -18 39 -16 31 2 38 -3 64 -42 21 -31
37 -45 53 -45 23 0 23 1 -8 40 l-32 41 26 24 c18 17 26 34 26 57 0 58 -30 78
-115 78 -48 0 -56 -3 -53 -17z"/>
<path d="M1864 996 c-29 -29 -34 -41 -34 -80 0 -27 7 -58 16 -72 38 -57 122
-71 172 -29 30 25 56 78 45 89 -4 3 -33 6 -65 6 -51 0 -58 -2 -58 -20 0 -17 7
-20 40 -20 48 0 51 -14 9 -36 -38 -19 -72 -12 -105 21 -34 34 -32 79 5 116 36
35 81 39 112 8 11 -11 30 -19 42 -17 21 3 20 5 -12 36 -28 27 -40 32 -83 32
-44 0 -54 -4 -84 -34z"/>
<path d="M2130 1011 c0 -17 5 -19 34 -14 54 9 88 -3 84 -30 -3 -19 -10 -22
-60 -25 -49 -3 -58 -6 -58 -22 0 -16 9 -19 63 -22 62 -3 62 -3 62 -33 0 -30 0
-30 -62 -33 -55 -3 -63 -6 -63 -22 0 -18 7 -20 60 -20 51 0 65 4 85 25 30 29
32 66 5 90 -17 15 -17 19 -5 32 21 20 19 49 -5 73 -16 16 -33 20 -80 20 -53 0
-60 -2 -60 -19z"/>
<path d="M2226 673 c-3 -3 -6 -23 -6 -43 0 -35 -1 -36 -34 -32 -28 3 -37 -1
-51 -21 -22 -35 -16 -76 16 -100 21 -15 31 -17 47 -8 14 7 23 8 27 1 18 -28
25 0 25 94 0 96 -7 126 -24 109z m-18 -105 c7 -7 12 -21 12 -33 0 -43 -50 -62
-70 -26 -14 27 -13 37 6 55 19 19 36 20 52 4z"/>
<path d="M1790 626 c0 -13 -6 -27 -12 -30 -10 -5 -10 -7 0 -12 7 -3 12 -25 12
-54 0 -39 4 -52 20 -60 20 -11 40 -6 40 9 0 5 -9 11 -20 14 -16 4 -20 14 -20
46 0 35 3 41 21 41 12 0 19 5 16 13 -2 6 -11 11 -21 9 -11 -2 -16 4 -16 23 0
14 -4 25 -10 25 -5 0 -10 -11 -10 -24z"/>
<path d="M1619 597 c-36 -19 -31 -49 14 -70 20 -10 35 -23 31 -28 -7 -12 -41
-12 -49 1 -9 15 -25 12 -25 -5 0 -21 44 -37 74 -26 49 19 40 64 -15 76 -16 4
-29 13 -29 21 0 17 31 19 48 2 13 -13 27 -5 17 11 -13 23 -41 30 -66 18z"/>
<path d="M1927 603 c-9 -9 -9 -95 1 -109 4 -6 17 -16 30 -23 19 -10 28 -10 48
3 27 18 37 48 32 96 -6 59 -27 47 -30 -17 -3 -54 -5 -58 -28 -58 -23 0 -25 4
-28 58 -3 53 -9 66 -25 50z"/>
<path d="M2344 597 c-10 -26 0 -130 14 -135 9 -3 12 15 12 67 0 65 -13 100
-26 68z"/>
<path d="M2489 596 c-13 -6 -28 -24 -33 -38 -21 -59 41 -115 90 -83 68 44 15
157 -57 121z m54 -37 c18 -25 11 -56 -15 -64 -38 -13 -66 43 -36 73 18 18 35
15 51 -9z"/>
</g>
</svg>
