<?xml version="1.0" standalone="no"?>
<!DOCTYPE svg PUBLIC "-//W3C//DTD SVG 20010904//EN"
 "http://www.w3.org/TR/2001/REC-SVG-20010904/DTD/svg10.dtd">
<svg version="1.0" xmlns="http://www.w3.org/2000/svg"
 width="214.000000pt" height="143.000000pt" viewBox="0 0 214.000000 143.000000"
 preserveAspectRatio="xMidYMid meet">
<metadata>
Created by potrace 1.10, written by Peter Selinger 2001-2011
</metadata>
<g transform="translate(0.000000,143.000000) scale(0.100000,-0.100000)"
fill="#000000" stroke="none">
<path d="M100 1167 l0 -35 74 5 c85 7 119 0 146 -27 26 -26 26 -84 1 -109 -24
-24 -95 -36 -167 -27 l-54 6 0 -30 0 -30 64 0 65 0 57 -80 c52 -72 61 -80 91
-80 18 0 33 2 33 5 0 3 -25 39 -55 80 l-55 74 27 13 c64 31 91 122 58 192 -26
53 -66 70 -182 74 l-103 4 0 -35z"/>
<path d="M665 1181 c-79 -36 -125 -111 -125 -201 0 -90 46 -162 127 -200 60
-28 144 -24 199 11 46 28 94 102 94 146 l0 33 -110 0 -110 0 0 -30 0 -30 75 0
c41 0 75 -4 75 -9 0 -20 -63 -71 -95 -77 -104 -19 -195 55 -195 159 0 139 183
210 267 103 15 -18 26 -23 46 -19 39 8 40 15 5 58 -59 71 -168 95 -253 56z"/>
<path d="M1090 1167 l0 -34 78 4 c91 5 125 -9 130 -50 6 -49 -11 -57 -114 -57
l-94 0 0 -32 0 -33 94 0 c108 0 136 -14 136 -70 0 -54 -23 -65 -133 -65 l-97
0 0 -33 0 -33 103 4 c156 6 194 36 188 150 -1 13 -14 36 -29 52 -27 27 -28 28
-10 50 26 32 24 102 -4 135 -28 31 -78 44 -175 45 l-73 0 0 -33z"/>
<path d="M1250 476 l0 -74 -36 13 c-49 17 -79 9 -114 -32 -25 -28 -30 -42 -30
-84 0 -45 4 -55 34 -85 36 -36 86 -45 127 -24 13 7 19 7 19 0 0 -5 10 -10 23
-10 l22 0 0 185 0 185 -22 0 c-22 0 -23 -4 -23 -74z m-20 -118 c27 -29 27 -85
-2 -115 -47 -50 -118 -14 -118 59 0 70 74 105 120 56z"/>
<path d="M470 459 c0 -36 -2 -40 -20 -34 -17 5 -20 2 -20 -20 0 -22 3 -25 20
-20 19 6 20 2 20 -84 0 -82 2 -91 22 -105 33 -23 78 -21 78 3 0 14 -8 21 -27
23 -28 3 -28 4 -31 86 l-3 84 31 -7 c28 -6 30 -4 30 20 0 24 -3 26 -30 20 -30
-6 -30 -6 -30 34 0 34 -3 41 -20 41 -17 0 -20 -7 -20 -41z"/>
<path d="M1470 480 c0 -14 7 -20 24 -20 19 0 23 4 19 20 -3 11 -14 20 -24 20
-12 0 -19 -7 -19 -20z"/>
<path d="M170 417 c-21 -7 -40 -23 -48 -40 -20 -41 3 -71 70 -92 68 -22 78
-32 54 -51 -26 -19 -71 -18 -90 2 -9 8 -26 14 -38 12 -22 -3 -22 -4 9 -36 26
-27 39 -32 78 -32 54 0 99 35 93 72 -3 25 -59 67 -100 75 -44 9 -54 29 -23 49
21 13 31 15 50 6 14 -7 25 -16 25 -22 0 -5 9 -10 20 -10 27 0 25 22 -2 47 -32
29 -57 34 -98 20z"/>
<path d="M712 330 c3 -97 4 -103 31 -126 20 -17 40 -24 72 -24 36 0 47 5 69
31 24 28 26 38 26 125 0 87 -1 94 -20 94 -18 0 -20 -7 -20 -88 0 -98 -12 -122
-63 -122 -43 0 -59 35 -56 127 2 74 1 78 -20 81 -23 4 -23 3 -19 -98z"/>
<path d="M1470 305 c0 -118 1 -125 20 -125 19 0 20 7 20 125 0 118 -1 125 -20
125 -19 0 -20 -7 -20 -125z"/>
<path d="M1755 422 c-30 -6 -74 -52 -84 -87 -20 -76 35 -155 108 -155 130 0
152 204 26 238 -17 5 -39 6 -50 4z m84 -78 c38 -83 -48 -165 -109 -104 -22 22
-27 78 -9 111 23 45 96 40 118 -7z"/>
</g>
</svg>
