 <svg  version="1.0" xmlns="http://www.w3.org/2000/svg"  width="651.000000pt" height="414.000000pt" viewBox="0 0 651.000000 414.000000"  preserveAspectRatio="xMidYMid meet">  <g transform="translate(0.000000,414.000000) scale(0.100000,-0.100000)" fill="#ffffff" stroke="none"> <path d="M356 3522 c-7 -12 -5 -167 2 -178 4 -6 107 -10 267 -10 143 0 274 -3 292 -8 46 -12 110 -70 133 -123 28 -63 27 -162 -1 -220 -55 -114 -143 -138 -482 -132 l-212 4 0 -85 0 -85 191 4 191 3 31 -40 c18 -22 32 -43 32 -46 0 -4 34 -52 75 -106 41 -54 75 -102 75 -105 0 -4 20 -33 45 -65 25 -32 45 -63 45 -69 0 -24 49 -39 143 -44 96 -5 97 -5 97 18 0 12 -7 29 -17 36 -23 20 -163 206 -163 218 0 6 -6 14 -14 18 -7 4 -28 31 -46 58 -19 28 -46 62 -62 77 -15 15 -28 32 -28 37 0 13 53 41 78 41 11 0 25 7 32 15 7 8 16 15 21 15 13 0 99 90 110 115 5 11 13 27 18 35 41 71 54 249 25 340 -22 68 -76 152 -112 176 -40 27 -65 42 -82 49 -8 4 -24 11 -35 18 -23 12 -79 24 -185 37 -92 11 -457 13 -464 2z"/> <path d="M2145 3513 c-62 -20 -133 -52 -141 -64 -3 -5 -12 -9 -21 -9 -26 0 -138 -98 -188 -165 -108 -144 -145 -283 -127 -473 9 -94 20 -139 48 -194 8 -14 14 -31 14 -38 0 -10 29 -52 93 -134 12 -16 24 -32 27 -35 11 -15 129 -101 138 -101 5 0 15 -7 22 -15 7 -8 22 -15 34 -15 11 0 30 -7 40 -15 11 -8 28 -15 38 -15 10 0 30 -7 43 -16 20 -13 47 -15 152 -11 126 4 192 16 245 43 14 8 31 14 38 14 24 0 210 154 210 175 0 4 13 24 28 44 15 20 35 53 45 74 9 20 24 52 33 71 10 21 16 65 17 121 l2 87 -335 0 -335 0 -2 -92 -1 -91 231 2 c222 2 232 2 235 -17 5 -36 -121 -170 -189 -201 -117 -52 -186 -63 -285 -43 -32 7 -73 15 -91 17 -18 3 -38 11 -44 19 -6 8 -20 14 -30 14 -21 0 -179 152 -179 173 0 8 -7 20 -15 27 -8 7 -15 22 -15 34 0 12 -7 31 -15 42 -21 27 -21 250 0 290 8 16 15 36 15 45 0 9 7 22 15 29 8 7 15 19 15 27 0 21 158 173 179 173 10 0 24 7 31 15 7 8 22 15 34 15 12 0 31 7 42 15 13 10 47 14 116 15 97 0 132 -8 218 -48 40 -19 160 -136 160 -156 0 -27 24 -36 54 -21 16 8 39 15 52 15 24 0 104 28 104 37 0 7 -116 156 -143 183 -75 76 -136 110 -272 154 -66 21 -269 21 -340 -1z"/> <path d="M3314 3517 c-3 -8 -4 -52 -2 -98 l3 -84 235 3 c266 3 312 -4 365 -57 38 -36 51 -87 40 -151 -5 -31 -17 -48 -52 -78 l-46 -37 -271 0 -271 0 0 -95 0 -95 236 4 c254 4 312 -3 379 -45 71 -44 84 -69 84 -164 1 -78 -1 -88 -27 -122 -16 -20 -45 -47 -65 -60 -36 -23 -42 -23 -322 -23 l-285 0 -3 -88 c-3 -89 7 -125 32 -110 6 4 139 10 296 14 305 7 293 5 398 64 39 21 108 100 129 147 51 109 45 264 -14 356 -39 59 -92 102 -127 102 -35 0 -33 21 4 45 17 11 48 45 68 75 l37 55 -1 105 c-1 121 -17 163 -91 237 -49 49 -97 73 -173 84 -30 4 -84 13 -120 18 -101 16 -429 14 -436 -2z"/> <path d="M3802 1355 c5 -226 1 -260 -28 -220 -36 49 -161 79 -250 61 -32 -7 -70 -19 -84 -27 -39 -22 -150 -138 -150 -157 0 -10 -8 -29 -17 -42 -25 -35 -24 -246 0 -284 10 -14 17 -31 17 -38 0 -27 101 -118 177 -161 47 -26 203 -29 230 -4 11 9 26 17 33 17 8 0 24 9 36 21 26 24 48 16 40 -14 -8 -32 12 -47 64 -47 42 0 79 18 65 31 -5 6 -9 562 -5 859 l2 225 -67 3 -68 3 5 -226z m-106 -307 c18 -10 40 -31 50 -46 48 -71 54 -91 54 -177 0 -99 -18 -137 -94 -199 -41 -34 -49 -37 -113 -38 -52 0 -76 5 -103 21 -33 19 -80 71 -80 87 0 4 -7 15 -16 25 -25 28 -22 181 5 233 24 46 60 86 77 86 6 0 17 6 24 14 6 8 21 17 33 19 40 8 130 -6 163 -25z"/> <path d="M1452 1318 l3 -113 -55 0 -55 0 0 -60 0 -60 55 0 55 0 5 -251 5 -251 29 -37 c15 -21 36 -40 45 -43 9 -3 23 -12 33 -20 11 -10 44 -15 100 -16 l83 -2 0 60 0 60 -66 3 c-108 5 -107 2 -110 270 -1 123 2 227 7 232 5 5 29 4 56 -1 26 -6 62 -9 80 -7 l33 3 0 60 0 60 -33 3 c-18 2 -54 -1 -80 -7 -28 -6 -51 -6 -56 -1 -5 5 -8 59 -7 120 l2 110 -66 0 -65 0 2 -112z"/> <path d="M4460 1365 l0 -65 59 0 c35 0 62 5 68 13 7 10 9 55 4 110 -1 4 -30 7 -66 7 l-65 0 0 -65z"/> <path d="M2189 1209 c-16 -10 -6 -517 12 -563 17 -48 91 -124 147 -154 36 -19 59 -22 146 -22 100 0 104 1 146 31 58 42 96 85 120 134 17 36 19 68 21 301 2 143 0 264 -3 270 -4 5 -30 9 -60 8 l-53 0 -3 -262 -2 -261 -49 -49 c-34 -34 -60 -51 -84 -55 -47 -7 -114 3 -128 19 -6 8 -17 14 -23 14 -13 0 -50 53 -66 95 -9 22 -10 89 -5 240 9 231 9 245 1 253 -8 7 -106 8 -117 1z"/> <path d="M595 1196 c-76 -14 -115 -36 -153 -84 -42 -52 -58 -119 -42 -169 14 -41 79 -113 103 -113 8 0 20 -7 27 -15 7 -8 21 -15 31 -15 10 0 33 -6 51 -14 47 -20 131 -46 146 -46 22 0 72 -43 72 -63 0 -23 -21 -44 -68 -69 -56 -29 -181 -27 -222 4 -17 12 -33 33 -36 45 -6 21 -12 23 -68 23 -35 0 -65 -3 -68 -6 -14 -14 20 -83 61 -124 69 -68 141 -91 259 -83 86 6 147 29 191 74 61 61 91 160 56 189 -8 7 -15 17 -15 22 0 12 -72 78 -86 78 -6 0 -17 7 -24 15 -7 8 -20 15 -30 15 -10 0 -23 7 -30 15 -7 8 -23 15 -35 15 -13 0 -36 7 -51 15 -16 8 -39 15 -51 15 -30 0 -91 37 -98 60 -8 24 9 56 38 72 34 19 90 38 113 38 54 0 134 -58 134 -96 0 -10 16 -14 60 -14 l60 0 0 38 c0 29 -9 47 -42 85 -22 27 -50 53 -62 58 -12 5 -28 13 -36 18 -24 14 -85 31 -106 30 -10 -1 -46 -7 -79 -13z"/> <path d="M4460 835 l0 -376 62 3 61 3 0 370 0 370 -61 3 -62 3 0 -376z"/> <path d="M5313 1197 c-29 -7 -58 -18 -65 -24 -6 -7 -17 -13 -24 -13 -19 0 -120 -115 -142 -162 -45 -97 -44 -258 3 -348 26 -48 116 -134 168 -159 62 -30 202 -30 265 0 65 32 137 105 172 177 30 61 31 67 27 170 -4 116 -16 157 -62 218 -37 48 -96 104 -111 104 -6 0 -17 6 -23 14 -6 7 -32 16 -59 20 -26 3 -58 8 -72 10 -14 3 -48 -1 -77 -7z m118 -119 c103 -24 169 -123 169 -253 0 -81 -14 -116 -65 -169 -56 -57 -81 -68 -156 -68 -66 0 -72 2 -115 37 -25 21 -48 45 -51 54 -3 9 -13 24 -22 34 -24 29 -21 200 6 248 28 52 55 78 110 105 57 28 56 28 124 12z"/> </g> </svg> 