 <svg  version="1.0" xmlns="http://www.w3.org/2000/svg"  width="822.000000pt" height="777.000000pt" viewBox="0 0 822.000000 777.000000"  preserveAspectRatio="xMidYMid meet">  <g transform="translate(0.000000,777.000000) scale(0.100000,-0.100000)" fill="#ffffff" stroke="none"> <path d="M4715 6928 c-146 -18 -360 -54 -500 -85 -237 -51 -531 -134 -685 -193 -30 -12 -66 -25 -80 -30 -174 -59 -525 -226 -720 -343 -142 -84 -425 -284 -520 -366 -14 -12 -50 -43 -80 -69 -255 -217 -557 -567 -736 -851 -21 -34 -47 -74 -56 -89 -10 -15 -22 -36 -28 -47 -6 -11 -26 -47 -45 -80 -33 -57 -150 -290 -183 -365 -8 -19 -19 -44 -25 -54 -5 -11 -13 -31 -17 -45 -5 -14 -18 -51 -30 -81 -12 -30 -26 -70 -31 -87 -6 -18 -14 -33 -19 -33 -6 0 -10 263 -10 699 0 762 3 726 -57 719 l-28 -3 -3 -947 c-2 -755 0 -948 10 -948 7 0 301 -2 653 -3 633 -2 640 -2 639 -22 -1 -11 -11 -54 -22 -95 -18 -70 -37 -189 -62 -390 -20 -156 -32 -523 -25 -770 19 -777 187 -1349 485 -1659 35 -36 131 -112 180 -142 94 -59 255 -99 397 -99 369 0 629 244 818 770 127 355 195 912 174 1430 -22 514 -111 876 -252 1013 l-48 47 -729 0 c-401 0 -735 3 -744 6 -9 3 -16 11 -16 18 0 14 106 222 155 304 54 91 222 328 260 368 5 6 35 41 65 77 215 260 566 533 870 679 126 60 239 108 256 108 7 0 28 6 46 14 61 26 239 68 383 90 116 18 350 27 383 15 l22 -9 0 -870 0 -870 28 -12 c18 -7 132 -11 347 -11 263 1 334 4 400 18 123 26 229 84 331 182 59 56 143 161 173 218 35 64 37 69 53 100 29 56 69 190 80 265 14 102 3 279 -22 359 -38 118 -95 216 -179 305 -55 57 -162 146 -177 146 -4 0 -15 6 -23 14 -21 19 -163 90 -221 110 -205 73 -328 102 -562 133 l-138 18 0 712 c0 391 -3 718 -6 727 -7 18 -21 18 -129 4z m43 -757 c1 -482 -1 -668 -9 -677 -9 -11 -44 -14 -144 -14 -159 0 -462 -43 -557 -79 -13 -5 -50 -16 -83 -26 -243 -70 -538 -225 -775 -406 -200 -153 -328 -277 -534 -519 -66 -78 -205 -275 -236 -335 -6 -11 -19 -33 -30 -50 -43 -67 -150 -275 -150 -292 0 -6 -9 -22 -21 -37 l-20 -26 -609 0 c-335 0 -615 3 -624 6 -20 8 -20 23 -2 83 8 25 21 71 30 101 65 233 156 460 279 701 78 153 99 189 183 324 145 229 298 418 519 641 277 279 474 435 780 618 72 42 137 81 145 86 43 26 328 164 415 201 221 94 512 189 770 252 221 55 574 117 645 113 l25 -1 3 -664z m265 -797 c274 -42 519 -115 650 -194 17 -11 39 -23 47 -27 26 -11 133 -95 170 -132 228 -229 266 -548 106 -881 -22 -47 -32 -62 -99 -152 -100 -135 -216 -222 -345 -259 -75 -21 -445 -36 -604 -24 l-98 7 0 839 0 839 35 0 c20 0 82 -7 138 -16z m-1226 -1769 c70 -79 125 -221 167 -435 83 -413 83 -1003 0 -1470 -98 -552 -287 -927 -549 -1087 -88 -54 -236 -89 -338 -79 -302 28 -517 190 -675 511 -119 241 -188 511 -239 930 -25 204 -25 886 0 1105 32 272 66 451 101 519 l17 31 749 -2 c739 -3 749 -3 767 -23z"/> <path d="M5745 3081 c-111 -31 -196 -105 -249 -216 -15 -31 -19 -63 -20 -140 0 -90 3 -106 28 -157 37 -76 103 -141 182 -178 56 -26 75 -30 152 -30 79 0 96 3 150 31 107 53 184 161 186 259 l1 55 -181 3 -182 2 -4 -22 c-2 -13 -1 -36 2 -53 l5 -30 115 -1 c135 -1 143 -8 80 -72 -102 -102 -267 -93 -371 20 -32 35 -69 128 -69 174 0 52 37 135 82 181 104 107 279 106 365 -2 21 -27 35 -35 60 -35 81 0 85 37 11 112 -76 77 -123 99 -227 103 -47 3 -99 0 -116 -4z"/> <path d="M4754 3066 c-3 -8 -4 -29 -2 -48 l3 -33 150 -5 c97 -3 158 -10 173 -18 35 -20 62 -72 62 -117 -1 -47 -15 -75 -51 -104 -24 -18 -43 -21 -180 -23 l-154 -3 -3 -38 c-5 -58 5 -64 101 -60 103 4 100 6 210 -142 81 -108 83 -110 126 -113 24 -2 48 1 54 7 11 11 12 9 -87 146 -36 50 -66 95 -66 100 0 6 18 18 40 28 26 12 51 36 74 72 34 51 36 58 36 138 0 77 -2 87 -29 123 -65 90 -106 104 -302 104 -119 0 -151 -3 -155 -14z"/> <path d="M6387 3073 c-12 -11 -8 -70 6 -81 6 -6 74 -12 149 -14 120 -3 140 -6 165 -24 40 -30 44 -90 8 -124 -24 -22 -34 -24 -173 -28 -93 -3 -150 -9 -154 -16 -11 -16 -9 -58 2 -76 9 -15 38 -17 282 -20 27 0 47 -8 70 -29 29 -26 33 -35 32 -80 -1 -92 -42 -111 -239 -111 -143 0 -155 -4 -155 -55 0 -51 11 -55 167 -55 163 0 226 16 280 72 30 32 63 109 63 148 0 37 -33 105 -66 138 -38 38 -40 44 -18 62 22 19 44 77 44 119 0 20 -10 57 -22 81 -18 35 -35 51 -77 73 -52 26 -61 27 -206 27 -83 0 -155 -3 -158 -7z"/> <path d="M6678 2002 c-16 -3 -18 -17 -18 -112 0 -60 -4 -111 -9 -114 -5 -3 -26 1 -47 10 -154 64 -308 -120 -235 -281 23 -52 81 -102 126 -111 41 -7 122 3 131 17 4 6 15 4 31 -6 13 -9 34 -15 46 -13 l22 3 3 301 c2 281 1 302 -15 306 -10 2 -26 2 -35 0z m-65 -306 c60 -60 60 -153 1 -206 -63 -55 -146 -33 -179 47 -27 64 -14 118 39 165 46 40 95 38 139 -6z"/> <path d="M5365 1918 c-2 -7 -6 -33 -7 -58 -3 -38 -7 -47 -31 -58 -22 -11 -28 -19 -25 -40 2 -17 10 -28 23 -31 11 -2 23 -8 27 -15 4 -6 8 -70 8 -142 0 -125 1 -131 24 -153 19 -18 37 -23 78 -25 53 -1 53 -1 53 29 0 27 -4 30 -32 33 -52 5 -63 31 -63 147 0 55 4 105 8 112 4 6 25 13 47 15 37 3 40 5 40 33 0 28 -3 30 -42 33 -47 3 -50 9 -55 87 -3 33 -7 41 -26 43 -12 2 -24 -3 -27 -10z"/> <path d="M7030 1905 c-20 -24 0 -50 36 -50 26 0 29 4 29 30 0 25 -4 31 -26 33 -15 2 -31 -4 -39 -13z"/> <path d="M4855 1792 c-55 -19 -102 -85 -91 -127 9 -37 62 -79 123 -100 115 -37 136 -58 91 -89 -35 -25 -104 -20 -142 9 -72 54 -107 9 -42 -54 28 -27 43 -34 93 -38 128 -12 204 54 177 154 -8 29 -43 51 -133 83 -88 30 -107 52 -72 81 33 27 83 24 120 -7 38 -32 76 -30 76 5 0 39 -61 81 -126 86 -30 2 -63 1 -74 -3z"/> <path d="M5773 1793 c-10 -3 -13 -43 -13 -147 0 -132 2 -146 23 -176 40 -59 71 -75 145 -75 79 0 118 22 148 82 16 31 19 61 19 172 0 117 -2 135 -17 145 -13 8 -23 8 -35 0 -15 -9 -19 -32 -23 -151 -5 -135 -6 -142 -30 -162 -35 -29 -91 -28 -127 3 -28 24 -28 25 -30 160 0 74 -4 140 -8 146 -6 10 -31 12 -52 3z"/> <path d="M7034 1788 c-4 -7 -8 -95 -8 -196 -1 -195 2 -207 46 -200 23 3 23 3 26 192 2 130 -1 193 -9 202 -14 17 -45 18 -55 2z"/> <path d="M7476 1790 c-69 -21 -125 -109 -126 -196 0 -129 91 -215 212 -201 127 15 203 163 147 286 -43 97 -135 140 -233 111z m129 -91 c49 -44 63 -95 41 -154 -35 -89 -117 -112 -184 -51 -36 33 -37 37 -37 101 0 66 1 68 39 101 52 45 92 45 141 3z"/> </g> </svg> 